<?xml version="1.0" standalone="no"?>
<!DOCTYPE svg PUBLIC "-//W3C//DTD SVG 20010904//EN"
 "http://www.w3.org/TR/2001/REC-SVG-20010904/DTD/svg10.dtd">
<svg version="1.0" xmlns="http://www.w3.org/2000/svg"
 width="905.000000pt" height="905.000000pt" viewBox="0 0 905.000000 905.000000"
 preserveAspectRatio="xMidYMid meet">
<metadata>
Created by potrace 1.14, written by Peter Selinger 2001-2017
</metadata>
<g transform="translate(0.000000,905.000000) scale(0.100000,-0.100000)"
fill="#000000" stroke="none">
<path d="M3467 7954 c-1 -1 -58 -5 -127 -8 -554 -30 -1179 -220 -1666 -507
-273 -161 -468 -312 -700 -543 -240 -239 -389 -433 -540 -703 -284 -507 -417
-1055 -408 -1678 1 -132 6 -262 9 -290 29 -241 40 -319 66 -450 84 -425 218
-829 398 -1201 78 -161 79 -162 69 -214 -18 -99 21 -248 132 -510 49 -117 57
-144 57 -200 1 -136 89 -242 239 -286 164 -47 571 30 831 158 117 57 135 72
109 91 -14 10 -33 4 -114 -36 -240 -116 -602 -202 -754 -178 -166 28 -282 148
-265 276 6 40 0 61 -54 187 -33 77 -72 175 -86 217 -43 129 -67 271 -45 271 5
0 30 -39 57 -87 27 -49 100 -164 162 -257 62 -93 113 -173 113 -179 0 -5 10
-26 21 -47 31 -55 88 -84 166 -84 58 0 61 -1 51 -19 -5 -10 -30 -28 -55 -39
-108 -48 -233 27 -233 139 0 34 -11 59 -62 138 -34 53 -64 92 -66 87 -2 -6 17
-51 42 -101 35 -69 46 -102 46 -138 0 -129 121 -218 250 -183 61 16 96 43 116
90 11 26 24 40 36 40 17 0 17 -2 3 -38 -26 -60 -43 -81 -96 -113 -95 -59 -88
-99 18 -99 134 0 408 74 592 161 80 38 85 41 67 55 -31 22 -118 52 -192 65
-61 10 -157 8 -248 -7 -23 -4 -27 -3 -16 5 34 22 194 43 282 38 158 -10 253
-54 483 -221 324 -235 756 -394 1180 -433 139 -13 394 -7 490 11 11 2 42 7 69
11 82 11 256 65 357 109 184 81 381 235 475 371 l35 52 42 -8 c60 -12 307 -11
428 1 224 23 375 64 526 145 47 25 87 44 87 43 32 -60 173 -223 255 -295 297
-260 682 -398 1171 -420 218 -9 543 28 753 87 46 13 84 17 121 13 43 -4 64 -1
98 16 24 11 127 41 228 66 404 99 483 143 527 294 63 216 -84 1042 -302 1697
-75 225 -104 289 -149 333 -63 61 -115 66 -396 37 -435 -44 -868 -49 -1025
-11 -16 4 -70 125 -260 581 -132 317 -241 582 -243 589 -2 7 19 19 50 29 144
46 227 148 251 307 10 73 14 82 39 95 23 12 36 13 71 3 54 -14 146 -5 195 20
107 55 147 164 104 279 -16 42 -384 724 -402 745 -4 5 -72 -19 -151 -52 -79
-34 -151 -61 -161 -61 -12 0 -31 20 -51 53 -316 517 -662 879 -1112 1165 -474
300 -1058 486 -1625 518 -94 5 -359 11 -363 8z m-458 -1307 l44 -174 -17 -504
c-9 -277 -19 -564 -22 -636 l-7 -132 69 19 c38 10 70 17 72 15 4 -4 91 -345
88 -345 0 0 -140 -36 -311 -80 -170 -43 -310 -78 -311 -77 -1 1 -22 79 -47
174 l-45 171 68 17 68 17 6 71 c10 126 40 1186 34 1193 -5 5 -327 -72 -336
-81 -2 -1 5 -32 14 -69 9 -37 15 -68 13 -70 -7 -5 -341 -88 -343 -84 -4 5
-126 482 -123 483 7 4 1015 263 1027 264 11 1 26 -42 59 -172z m-1435 -328
l171 -101 168 -652 c92 -358 167 -658 167 -665 0 -8 -45 -92 -101 -186 l-100
-170 -244 -63 -243 -62 -173 103 -174 103 -21 74 c-12 41 -24 89 -28 106 l-7
30 165 42 c90 23 169 42 174 42 6 0 16 -24 23 -54 6 -30 15 -60 19 -67 6 -9
48 -2 177 31 92 24 169 44 170 45 4 2 -100 400 -106 408 -4 4 -100 -16 -212
-45 l-205 -52 -174 103 -175 103 -71 278 -72 278 98 167 c54 91 102 171 107
176 10 10 444 127 476 128 11 1 96 -45 191 -100z m4813 -49 c18 -10 44 -37 58
-58 47 -71 244 -533 275 -644 l19 -68 -109 0 -109 0 -12 43 c-6 23 -49 132
-96 242 -124 293 -163 392 -163 421 0 73 70 105 137 64z m694 -327 c220 -404
211 -385 212 -455 1 -97 -52 -149 -158 -156 -72 -5 -133 17 -176 64 l-24 27
45 -7 c119 -17 150 -18 180 -6 64 27 90 122 50 188 -23 38 -70 61 -141 69 -27
3 -55 11 -62 17 -15 12 -241 516 -234 522 7 7 112 53 123 53 7 1 90 -142 185
-316z m-881 255 c0 -18 52 -154 124 -322 68 -160 128 -306 135 -325 26 -78 5
-164 -51 -204 -38 -28 -102 -26 -133 3 -27 26 -24 40 8 40 12 0 45 11 72 24
89 41 109 124 49 196 -33 38 -58 52 -108 59 -45 7 -46 8 -131 257 -36 104 -45
145 -45 198 0 64 1 67 33 86 43 27 47 25 47 -12z m-207 -14 c12 -4 12 -10 0
-47 -21 -59 -12 -104 57 -301 74 -214 72 -201 36 -201 -30 0 -30 1 -109 215
-43 118 -81 239 -84 267 -5 49 -4 53 18 62 28 11 61 13 82 5z m843 -249 l111
-254 -46 6 c-25 3 -53 9 -61 14 -8 4 -51 109 -96 234 l-81 226 26 14 c14 8 28
14 31 15 3 0 55 -115 116 -255z m-991 217 c-9 -43 8 -104 90 -324 41 -110 75
-204 75 -209 0 -5 -6 -9 -13 -9 -18 0 -177 438 -177 485 0 35 15 85 26 85 3 0
3 -13 -1 -28z m232 -12 c-10 -47 8 -120 73 -299 33 -92 60 -172 60 -179 0 -6
-12 -12 -28 -12 -27 0 -29 5 -84 163 -32 89 -63 185 -69 213 -14 60 -5 119 19
133 28 17 35 12 29 -19z m508 20 c13 0 25 -7 28 -17 3 -10 37 -109 76 -221 39
-112 71 -208 71 -213 0 -6 -7 -9 -17 -7 -11 2 -49 79 -115 232 -54 125 -98
231 -98 233 0 3 7 2 16 -1 9 -3 26 -6 39 -6z m315 -525 c249 -31 270 -40 270
-117 0 -29 -6 -41 -26 -54 -22 -15 -33 -16 -95 -4 -39 6 -111 15 -161 19 l-90
6 -24 80 c-13 44 -23 81 -24 83 0 4 26 2 150 -13z m-549 -54 c35 -35 37 -61 7
-95 -20 -21 -57 -31 -298 -81 -151 -31 -354 -77 -450 -100 -384 -95 -743 -226
-858 -312 l-33 -24 -34 74 c-18 41 -39 77 -47 80 -20 8 13 32 107 76 297 142
708 255 1440 399 97 19 134 15 166 -17z m508 -201 c41 -191 -21 -370 -150
-435 -54 -28 -85 -33 -51 -9 31 21 28 50 -7 68 -16 9 -71 21 -122 27 -89 11
-164 10 -569 -6 -130 -5 -153 4 -50 19 71 10 150 55 185 105 27 39 30 51 32
129 l2 87 36 7 c33 7 39 5 79 -38 l44 -46 169 4 c161 3 170 4 226 31 42 21 63
39 80 68 18 32 27 39 54 39 30 0 32 -3 42 -50z m-175 1 c-35 -31 -105 -51
-180 -51 l-46 0 26 31 c14 17 26 35 26 40 0 5 46 9 103 9 l102 -1 -31 -28z
m-600 -53 c22 -83 -24 -177 -105 -219 -59 -30 -196 -59 -278 -59 -41 0 -72 2
-70 4 3 3 49 12 104 20 138 21 194 40 243 81 43 37 72 105 72 167 0 34 25 38
34 6z m-1076 -1113 c222 -476 405 -872 408 -880 5 -13 -7 -15 -74 -15 -45 0
-91 4 -104 9 -18 7 -48 64 -137 257 -63 137 -211 454 -329 704 -313 664 -311
661 -305 693 9 46 64 97 105 97 l34 0 402 -865z m-594 740 c-4 -8 13 -55 36
-104 l42 -88 -50 -69 c-28 -38 -110 -166 -183 -284 -73 -118 -143 -232 -156
-254 l-25 -39 -52 52 c-29 29 -64 55 -79 59 l-26 7 88 140 c173 278 286 450
343 522 58 73 73 86 62 58z m731 -73 c-6 -5 -39 -29 -75 -54 -36 -25 -97 -75
-136 -112 -49 -44 -74 -62 -77 -52 -8 21 252 226 287 226 6 0 6 -3 1 -8z
m1482 -187 c235 -547 512 -1209 509 -1213 -7 -7 -165 -26 -171 -21 -2 3 -131
301 -286 664 l-281 659 24 18 c25 20 105 48 127 45 8 -1 43 -69 78 -152z
m-392 3 c-112 -123 -187 -427 -171 -695 3 -61 9 -120 13 -130 6 -16 5 -16 -10
-4 -10 7 -27 46 -40 85 -19 61 -22 92 -21 221 1 127 5 165 27 248 41 154 113
269 191 303 49 21 51 17 11 -28z m240 -225 c60 -142 148 -352 197 -467 49
-115 86 -211 84 -214 -3 -2 -51 29 -108 69 -176 125 -458 425 -458 487 0 28
47 177 72 227 26 52 91 155 99 155 3 0 54 -116 114 -257z m-1814 -208 c-56
-195 -62 -436 -17 -677 7 -38 10 -68 7 -68 -3 0 -22 16 -42 35 -35 32 -37 39
-50 137 -32 253 -6 483 76 673 l18 40 14 -35 c13 -31 13 -41 -6 -105z m1593
-99 c131 -162 303 -311 461 -401 l80 -45 42 -102 c23 -56 40 -104 38 -106 -7
-7 -133 47 -208 89 -132 74 -231 153 -376 297 l-144 143 7 77 c7 79 16 142 21
142 1 0 37 -43 79 -94z m-2258 -43 c58 -68 252 -278 418 -453 402 -422 774
-481 2081 -329 248 29 764 102 945 134 108 19 140 19 168 -1 23 -16 23 -16 17
18 -8 41 15 66 69 75 68 11 88 -7 149 -135 186 -392 340 -938 403 -1437 13
-101 18 -212 19 -398 l0 -259 -28 -24 c-35 -30 -85 -31 -120 -4 l-26 20 -24
-24 c-65 -65 -549 -125 -855 -105 -673 42 -1148 314 -1391 797 -26 52 -30 66
-20 79 18 20 78 50 120 58 33 6 35 5 58 -42 78 -162 254 -360 412 -466 164
-109 362 -186 586 -229 104 -20 149 -23 378 -23 272 1 335 7 559 57 81 18 104
20 129 10 17 -6 33 -9 36 -6 3 3 6 110 5 237 -1 249 -15 395 -60 616 -25 127
-44 178 -70 188 -8 3 -14 18 -14 34 0 32 -15 39 -25 11 -8 -27 -36 -37 -196
-71 -402 -84 -896 -158 -1564 -231 -191 -21 -529 -29 -632 -15 -27 4 -358 58
-738 120 -379 63 -874 144 -1100 180 -238 39 -416 72 -424 80 -19 18 -25 96
-11 139 9 30 15 35 33 31 18 -4 483 -84 1164 -200 305 -52 911 -157 968 -168
95 -17 485 -14 680 6 466 48 849 104 1430 207 303 54 332 58 359 45 16 -8 30
-15 31 -15 4 0 -5 70 -17 130 -13 66 -153 484 -176 522 -8 14 -26 32 -39 39
-16 8 -23 21 -23 41 0 15 -4 28 -10 28 -5 0 -10 -7 -10 -15 0 -8 -10 -21 -23
-30 -60 -39 -838 -155 -1517 -226 -234 -24 -699 -34 -890 -18 -307 26 -536
117 -754 301 -50 42 -216 202 -368 355 -266 267 -278 280 -278 316 0 48 13 73
48 91 54 30 84 21 138 -41z m-154 -199 c35 -36 64 -71 65 -77 1 -7 -44 -84
-100 -172 -96 -149 -105 -160 -136 -163 -63 -6 -136 64 -117 114 6 15 219 364
223 364 1 0 30 -30 65 -66z m2544 -191 c127 -104 312 -212 459 -269 33 -13 58
-24 55 -24 -25 -7 -433 -59 -525 -67 -139 -12 -123 -21 -156 91 -33 117 -55
252 -64 396 l-7 105 89 -91 c48 -50 116 -113 149 -141z m-575 164 c71 -34 157
-123 199 -207 32 -63 124 -329 117 -336 -9 -10 -475 -44 -595 -44 l-48 0 -83
182 c-92 202 -93 211 -41 290 37 55 106 105 179 129 82 28 197 21 272 -14z
m2634 -237 c23 0 85 -60 107 -104 41 -80 171 -498 237 -761 111 -447 188 -959
166 -1109 l-7 -46 -22 33 c-13 20 -45 44 -84 62 l-61 30 -1 54 c0 69 -41 349
-86 591 l-34 184 30 24 c42 33 60 72 60 132 0 99 -56 169 -153 190 l-55 13
-22 86 c-12 47 -44 154 -72 238 l-49 152 31 42 c43 59 42 115 -2 166 -23 25
-27 35 -15 30 10 -4 25 -7 32 -7z m-60 -50 c9 -10 19 -34 22 -54 8 -49 -14
-71 -94 -96 -62 -19 -341 -80 -366 -80 -11 0 -82 150 -74 156 2 1 414 92 442
97 29 5 52 -3 70 -23z m-427 -2 c-113 -20 -168 -19 -168 3 0 6 3 8 8 6 4 -3
50 -1 102 3 162 12 180 8 58 -12z m-571 -5 l212 -6 -15 -23 c-22 -33 -1 -28
-362 -78 -31 -5 -34 -3 -57 51 -30 66 -31 78 -7 68 9 -4 112 -10 229 -12z
m-3860 -76 c34 -36 117 -77 158 -77 39 0 422 -254 461 -306 21 -26 28 -50 31
-92 l4 -57 -30 51 c-17 29 -43 62 -58 74 -15 12 -149 94 -298 183 -148 88
-285 175 -302 193 -35 34 -41 61 -21 97 11 22 12 22 19 -7 5 -16 21 -42 36
-59z m408 -123 c210 -137 262 -178 285 -223 21 -43 26 -106 10 -131 -7 -11
-10 -6 -10 21 0 22 -11 53 -29 82 -25 38 -65 69 -228 178 -109 72 -202 135
-207 140 -12 11 13 41 28 32 6 -4 74 -48 151 -99z m-160 -137 c258 -155 294
-179 323 -222 58 -85 40 -186 -46 -252 -51 -39 -114 -51 -163 -30 -19 8 -162
92 -317 188 -296 182 -312 195 -312 261 0 34 15 62 109 206 l54 83 31 -30 c17
-16 162 -108 321 -204z m4628 -12 c46 -138 87 -290 87 -317 0 -10 -22 -19 -67
-27 -121 -23 -231 -38 -273 -37 l-40 1 -49 145 c-27 80 -63 180 -80 224 -18
43 -30 81 -27 83 3 3 40 11 83 19 43 7 128 26 188 42 77 19 113 25 121 17 7
-5 32 -73 57 -150z m-731 8 c20 -23 153 -402 144 -411 -4 -3 -87 -7 -184 -7
l-176 0 -78 185 c-43 101 -78 187 -78 190 0 4 48 14 108 24 59 9 123 21 142
26 60 14 106 11 122 -7z m-393 -105 c13 -35 66 -162 117 -282 51 -121 92 -221
90 -223 -7 -7 -168 -34 -173 -29 -7 7 -244 568 -241 571 3 3 134 22 163 24 16
1 25 -12 44 -61z m-2551 5 c14 -13 34 -74 71 -225 28 -114 51 -213 50 -220 0
-13 -159 440 -159 455 0 12 17 8 38 -10z m2359 -137 c34 -82 61 -151 59 -153
-2 -2 -68 7 -147 21 -208 35 -543 94 -624 108 l-70 13 -3 38 c-2 25 1 37 10
38 7 0 162 20 343 43 182 24 339 43 349 42 15 -1 34 -35 83 -150z m-2514 -16
c52 -134 91 -254 116 -362 l18 -78 -27 0 c-26 0 -27 3 -48 108 -17 87 -76 308
-117 442 -19 62 16 -4 58 -110z m-1251 35 c34 -22 55 -42 51 -49 -3 -6 -67
-100 -140 -208 -139 -205 -152 -218 -207 -204 -38 9 -86 55 -86 81 0 13 61
117 142 240 l141 216 21 -19 c12 -11 47 -36 78 -57z m2862 -2 c9 -60 7 -321
-4 -393 -6 -36 -17 -95 -26 -132 l-16 -66 -71 -7 c-40 -4 -100 -7 -135 -8
l-64 -2 -127 297 -128 296 86 7 c95 8 462 42 472 44 4 0 9 -16 13 -36z m-505
-309 c73 -163 129 -299 126 -303 -4 -3 -48 -6 -97 -6 l-91 0 -107 237 c-147
326 -136 295 -114 320 26 28 71 47 115 48 l37 0 131 -296z m-250 -24 c72 -156
129 -285 127 -287 -4 -4 -619 98 -625 104 -3 2 6 11 20 20 47 32 186 179 227
243 24 36 59 98 79 138 20 40 37 71 39 69 1 -1 61 -130 133 -287z m1326 180
c215 -39 397 -73 406 -76 16 -4 84 -153 74 -162 -3 -4 -840 130 -902 145 -22
5 -23 10 -23 90 l0 85 28 -6 c15 -3 203 -38 417 -76z m1893 -17 c30 -18 52
-71 52 -122 0 -57 -35 -94 -113 -120 -60 -20 -332 -81 -361 -81 -13 0 -29 41
-51 131 l-7 26 139 33 c169 40 263 68 263 79 0 5 -7 14 -16 21 -12 11 -42 7
-172 -24 -218 -51 -222 -51 -233 -35 -18 28 -8 36 59 48 37 6 128 25 202 41
141 30 195 31 238 3z m-810 -103 c1 -14 -2 -31 -6 -38 -5 -7 -64 -24 -131 -37
-68 -13 -131 -27 -142 -30 -16 -6 -24 4 -49 59 -17 36 -30 68 -30 71 0 3 80 4
178 3 l177 -3 3 -25z m-1288 -54 c107 -18 300 -51 428 -72 127 -21 232 -42
232 -45 0 -3 -19 -9 -42 -12 -24 -4 -119 -18 -213 -32 -280 -43 -505 -73 -585
-80 -41 -3 -84 -9 -94 -12 -13 -4 -17 -1 -14 8 7 18 36 179 43 242 6 42 9 47
28 42 12 -3 110 -20 217 -39z m2118 -451 c54 -308 78 -482 69 -492 -12 -11
-202 28 -311 65 -95 32 -112 41 -118 62 -4 14 -16 97 -28 185 -12 88 -32 215
-46 283 -14 68 -24 125 -22 126 1 1 50 12 108 25 58 12 146 32 195 45 81 20
91 21 96 7 4 -9 29 -147 57 -306z m-730 158 c18 -34 72 -313 72 -369 0 -12
-68 44 -148 121 -94 90 -188 202 -178 213 9 9 182 49 218 51 17 1 31 -6 36
-16z m-5669 -134 c153 -100 315 -150 491 -150 171 0 305 33 474 117 49 24 91
42 93 40 10 -9 -120 -101 -192 -136 -108 -52 -180 -70 -310 -77 -239 -12 -458
70 -643 242 -76 70 -107 119 -36 56 27 -24 82 -65 123 -92z m5413 16 c52 -69
222 -235 291 -285 51 -36 52 -38 62 -179 l7 -84 -39 23 c-136 82 -282 210
-398 350 -63 77 -141 187 -144 205 -2 11 160 45 170 36 3 -3 26 -33 51 -66z
m-3760 46 c81 -31 122 -150 74 -216 -12 -16 -13 -13 -9 32 6 61 -14 105 -60
133 -83 51 -196 -14 -198 -115 0 -29 -1 -29 -10 -6 -12 30 6 98 34 130 41 44
114 63 169 42z m3495 -48 c35 -63 138 -196 213 -276 88 -95 198 -187 310 -260
116 -77 110 -68 110 -148 0 -96 -13 -109 -151 -138 -218 -46 -282 -53 -499
-56 -274 -5 -403 12 -614 76 -266 82 -503 244 -656 448 -78 104 -77 99 -33
163 l38 56 65 7 c36 3 83 8 105 10 78 9 441 56 535 70 52 8 120 17 150 21 30
4 127 19 215 34 88 15 167 28 176 29 8 1 25 -16 36 -36z m-3500 -25 c21 -10
40 -44 31 -53 -2 -3 -23 5 -47 17 -38 19 -47 20 -78 9 -41 -15 -53 -8 -29 18
28 31 72 34 123 9z m794 2 c26 0 25 -51 -1 -156 -97 -383 -445 -669 -926 -764
-137 -27 -411 -37 -574 -21 -203 20 -438 87 -690 198 -132 58 -171 78 -342
180 -135 79 -303 163 -387 194 -35 12 -60 24 -54 26 22 8 198 -65 373 -155
295 -151 329 -167 451 -215 332 -131 610 -184 923 -174 355 11 655 123 878
326 141 129 259 341 284 508 8 59 12 66 31 59 8 -3 23 -6 34 -6z m475 -80
c128 -22 294 -47 369 -55 74 -8 139 -16 144 -19 9 -6 81 -153 81 -166 0 -14
-172 -97 -256 -123 -44 -14 -118 -33 -165 -42 -97 -19 -374 -31 -471 -21 l-66
7 25 62 c31 76 59 206 68 315 6 65 10 82 23 82 9 0 121 -18 248 -40z m-1287
16 c57 -30 68 -110 22 -157 -40 -40 -89 -40 -133 0 -86 77 7 210 111 157z
m-1541 -120 c87 -46 127 -160 81 -235 -26 -42 -35 -35 -13 12 25 52 12 102
-41 154 -37 38 -48 43 -87 43 -31 0 -54 -7 -72 -21 -35 -27 -33 -9 3 30 33 35
82 42 129 17z m-6 -71 c37 -25 55 -56 43 -75 -4 -6 -20 4 -38 22 -18 18 -41
38 -51 44 -12 6 -16 15 -12 22 10 17 16 15 58 -13z m-51 -40 c67 -35 91 -127
43 -164 -32 -25 -46 -26 -91 -4 -44 20 -73 66 -73 115 0 61 57 86 121 53z
m6239 -225 c194 -34 235 -55 212 -105 -15 -33 -89 -79 -169 -106 -79 -26 -78
-34 2 -13 121 32 225 96 225 140 0 23 17 16 55 -21 49 -49 49 -95 0 -141 -44
-41 -96 -61 -345 -127 -191 -52 -201 -53 -196 -33 3 11 6 53 6 92 l0 71 88 23
c91 24 182 64 182 80 0 17 -49 42 -108 56 -83 20 -105 17 -60 -7 21 -10 42
-29 49 -40 11 -21 9 -21 -41 -14 -110 15 -105 9 -108 112 l-3 91 50 -19 c28
-10 100 -28 161 -39z m-185 -180 c3 -5 -1 -10 -9 -10 -9 0 -16 5 -16 10 0 6 4
10 9 10 6 0 13 -4 16 -10z"/>
<path d="M1241 6014 c-90 -24 -165 -45 -168 -47 -4 -4 94 -394 103 -409 4 -6
331 76 341 86 5 5 -96 399 -105 407 -4 3 -81 -14 -171 -37z"/>
<path d="M6306 6224 c-35 -34 -16 -117 44 -194 18 -23 29 -52 32 -83 12 -103
88 -194 143 -169 51 23 40 120 -21 191 -19 21 -34 50 -34 63 0 54 -32 133 -70
170 -40 41 -69 47 -94 22z m64 -69 c17 -18 24 -37 24 -70 1 -24 -3 -45 -9 -46
-12 -2 -52 67 -65 111 -7 25 -6 30 9 30 10 0 28 -11 41 -25z m94 -227 c9 -12
16 -42 16 -66 0 -40 -2 -43 -17 -31 -21 18 -52 87 -53 117 0 19 3 21 19 12 11
-5 27 -20 35 -32z"/>
<path d="M3623 3215 c-46 -20 -73 -69 -73 -132 0 -45 5 -58 32 -89 38 -42 82
-64 133 -64 19 0 35 -4 35 -9 0 -19 53 -72 91 -91 110 -57 241 18 227 128 -11
76 -84 141 -164 145 -26 2 -36 8 -44 28 -15 34 -57 75 -93 88 -39 15 -105 13
-144 -4z m63 -31 c-3 -9 -6 -24 -6 -34 0 -10 -7 -26 -16 -35 -11 -10 -13 -20
-6 -28 13 -17 24 -67 14 -67 -5 0 -19 11 -32 25 -32 34 -41 120 -14 140 27 20
68 20 60 -1z m107 -13 c18 -17 38 -46 44 -66 11 -33 9 -39 -15 -65 -36 -39
-95 -46 -100 -12 -3 17 2 22 17 22 27 0 27 20 1 27 -14 4 -20 14 -20 33 0 34
19 90 31 90 4 0 23 -13 42 -29z m-191 -123 c17 -46 73 -73 146 -72 55 0 62 -2
62 -19 0 -11 17 -37 39 -58 34 -34 44 -39 85 -39 29 0 45 -4 41 -10 -9 -15
-92 -12 -124 5 -34 17 -81 70 -81 91 0 10 -12 14 -39 14 -76 0 -134 37 -150
98 -6 18 -7 41 -3 50 5 13 7 12 10 -8 2 -14 8 -37 14 -52z m342 18 c70 -29
112 -108 87 -163 -11 -24 -15 -25 -71 -21 -67 5 -94 23 -117 77 -12 29 -12 35
1 50 8 9 19 28 25 44 12 30 27 33 75 13z"/>
<path d="M3800 2182 c-32 -33 -36 -51 -18 -85 27 -52 83 -62 123 -22 47 46 23
118 -42 131 -27 5 -37 1 -63 -24z m16 -67 c18 -18 65 -20 82 -3 8 8 12 9 12 1
0 -20 -30 -43 -56 -43 -24 0 -64 31 -64 50 0 14 9 12 26 -5z"/>
<path d="M2204 1955 c-26 -39 0 -91 60 -122 60 -31 103 13 76 78 -28 66 -105
92 -136 44z m90 -81 c30 -19 25 -38 -7 -28 -33 10 -67 45 -67 69 0 35 12 37
31 6 10 -17 29 -37 43 -47z"/>
</g>
</svg>
